PathFileType	4	(X/Y/Z)	Gait_latera_markers.trc
DataRate	CameraRate	NumFrames	NumMarkers	Units	OrigDataRate	OrigDataStartFrame	OrigNumFrames
100	100	8	38	m	100	67	88
Frame#	Time	RASI			RPSI			LPSI			LASI			RTROCH			RTHI			RTHI2			RTHI3			RTHI4			RKNE			RKNEM			RTIB			RTIB2			RTIB3			RTIB4			RANK			RANKM			RHEE			RTOE			RTOEL			RTOEM			LTROCH			LTHI			LTHI2			LTHI3			LTHI4			LKNE			LKNEM			LTIB			LTIB2			LTIB3			LTIB4			LANK			LANKM			LHEE			LTOE			LTOEL			LTOEM
		X1	Y1	Z1	X2	Y2	Z2	X3	Y3	Z3	X4	Y4	Z4	X5	Y5	Z5	X6	Y6	Z6	X7	Y7	Z7	X8	Y8	Z8	X9	Y9	Z9	X10	Y10	Z10	X11	Y11	Z11	X12	Y12	Z12	X13	Y13	Z13	X14	Y14	Z14	X15	Y15	Z15	X16	Y16	Z16	X17	Y17	Z17	X18	Y18	Z18	X19	Y19	Z19	X20	Y20	Z20	X21	Y21	Z21	X22	Y22	Z22	X23	Y23	Z23	X24	Y24	Z24	X25	Y25	Z25	X26	Y26	Z26	X27	Y27	Z27	X28	Y28	Z28	X29	Y29	Z29	X30	Y30	Z30	X31	Y31	Z31	X32	Y32	Z32	X33	Y33	Z33	X34	Y34	Z34	X35	Y35	Z35	X36	Y36	Z36	X37	Y37	Z37	X38	Y38	Z38

67	0.660000	-0.288794	0.941674	0.018865	-0.238629	0.978459	-0.169209	-0.143613	0.970854	-0.169122	-0.060586	0.944978	0.010096	-0.352973	0.864897	-0.037883	-0.363857	0.746407	-0.008202	-0.343807	0.767751	0.053628	-0.336519	0.692424	0.088966	-0.354353	0.665191	0.033918	-0.324161	0.527671	0.085235	-0.203450	0.535953	0.091769	-0.341312	0.392640	0.096518	-0.324383	0.413583	0.155183	-0.324544	0.332018	0.187836	-0.342839	0.315414	0.124549	-0.297987	0.107966	0.211853	-0.236378	0.135971	0.254752	-0.240974	0.038761	0.200590	-0.332972	0.139183	0.391385	-0.371432	0.084805	0.347619	-0.274344	0.117592	0.402108	-0.016504	0.881083	-0.080469	-0.017680	0.681012	-0.103681	-0.027776	0.668004	-0.044032	-0.046386	0.587791	-0.066329	-0.034832	0.598137	-0.129037	-0.052465	0.511043	-0.137416	-0.157039	0.528367	-0.118269	-0.048498	0.315711	-0.255847	-0.064897	0.297291	-0.196130	-0.077599	0.218942	-0.234274	-0.061739	0.242462	-0.291005	-0.093315	0.117818	-0.338793	-0.164966	0.128597	-0.294256	-0.149205	0.075967	-0.397659	-0.076073	0.050678	-0.175108	-0.034215	0.043886	-0.232997	-0.130130	0.049918	-0.181549
68	0.670000	-0.289293	0.940686	0.031463	-0.239947	0.977031	-0.157047	-0.145149	0.969554	-0.157470	-0.060568	0.943468	0.021076	-0.353982	0.863830	-0.025020	-0.365209	0.745534	0.005747	-0.345950	0.767593	0.067553	-0.338378	0.692842	0.103611	-0.355645	0.664859	0.048774	-0.324374	0.527994	0.100474	-0.205091	0.535405	0.106208	-0.342154	0.392262	0.110978	-0.322660	0.411145	0.169784	-0.322577	0.328455	0.199133	-0.343358	0.314262	0.136149	-0.296856	0.104079	0.215427	-0.234266	0.130729	0.257730	-0.240862	0.038982	0.200590	-0.328262	0.130874	0.396439	-0.368957	0.078782	0.351212	-0.269967	0.108115	0.405896	-0.015727	0.881471	-0.071486	-0.018077	0.679879	-0.093556	-0.027320	0.667327	-0.034831	-0.046082	0.587153	-0.056497	-0.034899	0.597691	-0.119608	-0.052561	0.510304	-0.128325	-0.157201	0.527146	-0.108717	-0.048519	0.316944	-0.250142	-0.063734	0.297158	-0.190636	-0.077564	0.219640	-0.230807	-0.061381	0.244557	-0.286744	-0.092956	0.120746	-0.337185	-0.164481	0.130553	-0.292061	-0.148777	0.079626	-0.396429	-0.076073	0.050411	-0.174916	-0.033952	0.044727	-0.233125	-0.130328	0.049988	-0.181174
69	0.680000	-0.289924	0.940174	0.044352	-0.241801	0.975452	-0.144594	-0.146854	0.968525	-0.145948	-0.061303	0.942399	0.031861	-0.354378	0.863056	-0.010835	-0.366640	0.744534	0.019001	-0.348695	0.766775	0.081076	-0.340400	0.692891	0.117750	-0.356813	0.664298	0.062849	-0.322796	0.527733	0.116232	-0.205967	0.534888	0.119453	-0.343147	0.392073	0.122355	-0.321228	0.408465	0.182798	-0.320752	0.324906	0.209755	-0.343304	0.312652	0.146520	-0.294812	0.100952	0.219738	-0.231625	0.126199	0.261293	-0.240101	0.039331	0.202835	-0.323691	0.123912	0.401540	-0.366395	0.073862	0.355748	-0.265932	0.099437	0.409928	-0.016433	0.880399	-0.060985	-0.018638	0.679401	-0.083983	-0.027707	0.665749	-0.024964	-0.046227	0.585672	-0.046692	-0.035153	0.596591	-0.109524	-0.052600	0.509674	-0.118368	-0.157272	0.526004	-0.098186	-0.048141	0.318559	-0.243946	-0.064209	0.297147	-0.184792	-0.076850	0.220314	-0.226158	-0.061377	0.246597	-0.282168	-0.092249	0.123679	-0.334993	-0.163911	0.132676	-0.289286	-0.148248	0.084023	-0.395030	-0.076489	0.049693	-0.174551	-0.033656	0.044827	-0.232330	-0.130612	0.050104	-0.180708
70	0.690000	-0.290487	0.939539	0.057504	-0.243807	0.974303	-0.132106	-0.149094	0.967298	-0.133969	-0.061893	0.941495	0.042934	-0.354912	0.862615	0.003611	-0.367863	0.743840	0.031601	-0.350494	0.766682	0.093897	-0.342360	0.692496	0.130748	-0.357692	0.663709	0.075940	-0.321938	0.527584	0.129518	-0.207088	0.534618	0.131710	-0.341980	0.390474	0.135565	-0.319946	0.406494	0.194009	-0.319077	0.322482	0.219843	-0.342410	0.311187	0.156959	-0.292734	0.099379	0.225775	-0.229161	0.123317	0.267279	-0.239395	0.040754	0.205807	-0.320316	0.118096	0.407542	-0.363639	0.070731	0.359950	-0.263148	0.091920	0.414962	-0.017670	0.879445	-0.050264	-0.019217	0.678706	-0.073673	-0.027725	0.664978	-0.014345	-0.045020	0.585471	-0.035541	-0.035266	0.596006	-0.099130	-0.052333	0.508407	-0.107924	-0.157304	0.524970	-0.086891	-0.047832	0.320155	-0.237005	-0.063843	0.297267	-0.178454	-0.076521	0.221443	-0.221558	-0.061075	0.249309	-0.276980	-0.091768	0.127397	-0.332731	-0.163321	0.135244	-0.286293	-0.147740	0.088876	-0.393084	-0.076331	0.049910	-0.174716	-0.033468	0.045091	-0.231758	-0.130547	0.050248	-0.180130
71	0.700000	-0.291124	0.938978	0.070648	-0.246164	0.973473	-0.119376	-0.151523	0.966498	-0.122062	-0.062427	0.940780	0.054285	-0.356057	0.862361	0.017512	-0.368654	0.743279	0.043813	-0.352862	0.765833	0.106444	-0.344324	0.691979	0.143117	-0.358529	0.663324	0.087761	-0.321180	0.527344	0.141124	-0.212212	0.532121	0.140372	-0.341826	0.389623	0.145778	-0.318636	0.405407	0.205196	-0.317397	0.321596	0.230913	-0.341496	0.310076	0.167816	-0.292005	0.098844	0.232824	-0.227224	0.120779	0.274341	-0.239110	0.042972	0.208989	-0.317336	0.112039	0.414334	-0.361647	0.067602	0.364473	-0.261142	0.084317	0.419591	-0.021100	0.877295	-0.038005	-0.019977	0.678378	-0.063200	-0.029819	0.663079	-0.001024	-0.045656	0.584274	-0.025053	-0.035743	0.595336	-0.088154	-0.052258	0.507764	-0.096873	-0.157349	0.523667	-0.074915	-0.047870	0.321924	-0.229467	-0.063594	0.297811	-0.171581	-0.076182	0.223162	-0.216562	-0.060852	0.251875	-0.271001	-0.091115	0.131290	-0.329578	-0.162664	0.138006	-0.282506	-0.147548	0.094735	-0.390653	-0.076199	0.049484	-0.174156	-0.033249	0.045460	-0.231103	-0.130436	0.050486	-0.179208
72	0.710000	-0.291927	0.938843	0.083789	-0.248535	0.973199	-0.106576	-0.153989	0.965975	-0.110184	-0.063297	0.940549	0.065638	-0.357155	0.861997	0.030916	-0.369019	0.743119	0.055510	-0.354590	0.765620	0.118444	-0.345914	0.691032	0.154849	-0.358872	0.663141	0.098494	-0.321701	0.526722	0.150878	-0.211094	0.532552	0.150646	-0.342069	0.389072	0.156904	-0.317771	0.404917	0.215947	-0.316131	0.320921	0.240807	-0.341213	0.309636	0.178935	-0.291210	0.098538	0.239156	-0.225957	0.118395	0.280520	-0.239141	0.044958	0.211633	-0.315762	0.104943	0.420357	-0.360559	0.063347	0.368381	-0.259635	0.075249	0.423196	-0.020308	0.878316	-0.028191	-0.020759	0.677931	-0.051555	-0.027855	0.664817	0.007764	-0.044843	0.583982	-0.012632	-0.036068	0.595103	-0.076556	-0.052103	0.507159	-0.084802	-0.157205	0.522514	-0.061668	-0.047935	0.324414	-0.221473	-0.063030	0.298574	-0.163968	-0.075598	0.224791	-0.210675	-0.060820	0.254759	-0.264254	-0.090829	0.134955	-0.325274	-0.162286	0.141423	-0.278770	-0.147452	0.101234	-0.387688	-0.076228	0.049239	-0.173642	-0.033229	0.046185	-0.230402	-0.130973	0.050387	-0.178973
73	0.720000	-0.292765	0.938986	0.096889	-0.251124	0.973519	-0.093831	-0.156185	0.965696	-0.097829	-0.063929	0.940580	0.077050	-0.358288	0.862460	0.044385	-0.369566	0.742954	0.066642	-0.356147	0.764467	0.130666	-0.347325	0.690251	0.165579	-0.359088	0.662694	0.108966	-0.323138	0.526043	0.160698	-0.211289	0.531538	0.159023	-0.342551	0.389651	0.168294	-0.317278	0.404810	0.227144	-0.315113	0.320459	0.251458	-0.341488	0.309940	0.189450	-0.291098	0.098498	0.243646	-0.225444	0.116764	0.285212	-0.239142	0.046490	0.213667	-0.315911	0.097743	0.425107	-0.360658	0.058182	0.371142	-0.259624	0.067885	0.426757	-0.021851	0.878204	-0.016861	-0.021166	0.678262	-0.039684	-0.029626	0.662738	0.021396	-0.044371	0.583859	0.000172	-0.036082	0.595091	-0.064004	-0.051406	0.506549	-0.071415	-0.156952	0.521358	-0.047290	-0.047557	0.327288	-0.212460	-0.062267	0.299820	-0.155620	-0.075027	0.226877	-0.203902	-0.060091	0.259133	-0.257169	-0.090715	0.140265	-0.320943	-0.161609	0.144980	-0.273584	-0.147540	0.108600	-0.383733	-0.076214	0.049235	-0.173157	-0.033136	0.047081	-0.229425	-0.130128	0.050846	-0.177577
74	0.730000	-0.293402	0.938886	0.109564	-0.253626	0.974392	-0.081563	-0.158731	0.965879	-0.085929	-0.064859	0.941125	0.088478	-0.359350	0.863302	0.057676	-0.370487	0.743184	0.077565	-0.356961	0.764562	0.141267	-0.348391	0.689218	0.175925	-0.360297	0.662594	0.118791	-0.324539	0.526406	0.172086	-0.210499	0.532553	0.168521	-0.343398	0.390945	0.179425	-0.317141	0.404688	0.238388	-0.315209	0.319724	0.260652	-0.342494	0.310765	0.198898	-0.291148	0.098237	0.247130	-0.225663	0.115284	0.289195	-0.239433	0.047488	0.215041	-0.317601	0.091805	0.428437	-0.362110	0.053976	0.372207	-0.261405	0.062096	0.429259	-0.024167	0.877281	-0.004884	-0.021462	0.678783	-0.027161	-0.027690	0.665949	0.032732	-0.043604	0.584098	0.014025	-0.035945	0.594831	-0.050145	-0.050380	0.506702	-0.056963	-0.156510	0.520268	-0.031639	-0.047278	0.330383	-0.202368	-0.061085	0.301444	-0.146315	-0.074236	0.229272	-0.196293	-0.060116	0.263586	-0.249022	-0.090875	0.146463	-0.316027	-0.161114	0.149301	-0.267528	-0.147966	0.117106	-0.378779	-0.076159	0.049294	-0.172563	-0.033106	0.048254	-0.228364	-0.130414	0.050457	-0.177255
